<svg width="128" height="84" viewBox="0 0 128 84" fill="none" xmlns="http://www.w3.org/2000/svg">
<rect x="6" y="15" width="116" height="53" fill="#1976D2"/>
<path d="M42.8633 47.5352C42.8789 47.6289 42.8906 47.7227 42.8984 47.8164C42.9062 47.9023 42.9102 47.9922 42.9102 48.0859C42.9102 48.3203 42.8867 48.5469 42.8398 48.7656C42.8008 48.9766 42.7539 49.168 42.6992 49.3398C42.6445 49.5039 42.5938 49.6406 42.5469 49.75C42.5078 49.8516 42.4844 49.9062 42.4766 49.9141L42.3828 50.0781C42.2656 50.0625 42.1406 50.0508 42.0078 50.043C41.875 50.0352 41.7305 50.0312 41.5742 50.0312C41.5117 50.0312 41.4492 50.0312 41.3867 50.0312C41.332 50.0312 41.2734 50.0391 41.2109 50.0547C41.1875 50.2109 41.1719 50.3711 41.1641 50.5352C41.1641 50.6992 41.1641 50.8594 41.1641 51.0156C41.1641 51.4609 41.1953 51.9023 41.2578 52.3398C41.3203 52.7773 41.3984 53.1836 41.4922 53.5586L41.5156 53.6523L41.4688 53.7578C41.4609 53.7734 41.4141 53.8477 41.3281 53.9805C41.2422 54.1133 41.1055 54.2578 40.918 54.4141C40.7383 54.5625 40.5 54.6992 40.2031 54.8242C39.9062 54.9414 39.5469 55 39.125 55C38.6953 55 38.3281 54.9453 38.0234 54.8359C37.7266 54.7266 37.4805 54.6055 37.2852 54.4727C37.0977 54.332 36.957 54.207 36.8633 54.0977C36.7773 53.9805 36.7305 53.9141 36.7227 53.8984L36.6523 53.7812L36.6992 53.6523C36.8398 53.2695 36.957 52.8398 37.0508 52.3633C37.1445 51.8867 37.2031 51.4297 37.2266 50.9922C36.9922 51.0391 36.7578 51.1016 36.5234 51.1797C36.2891 51.25 36.0664 51.3281 35.8555 51.4141C35.6445 51.5 35.4453 51.5898 35.2578 51.6836C35.0781 51.7695 34.918 51.8516 34.7773 51.9297L34.6367 51.9766C34.4805 51.9766 34.2852 51.9805 34.0508 51.9883C33.8242 51.9961 33.6016 52 33.3828 52C33.4219 52.3984 33.4727 52.7461 33.5352 53.043C33.5977 53.332 33.6602 53.543 33.7227 53.6758L33.7695 53.8047L33.7227 53.8984C33.7148 53.9141 33.6719 53.9844 33.5938 54.1094C33.5156 54.2266 33.3867 54.3555 33.207 54.4961C33.0273 54.6367 32.7812 54.7656 32.4688 54.8828C32.1641 54.9922 31.7812 55.0469 31.3203 55.0469C30.8594 55.0469 30.4766 54.9883 30.1719 54.8711C29.875 54.7461 29.6367 54.6094 29.457 54.4609C29.2852 54.3047 29.1641 54.1641 29.0938 54.0391C29.0234 53.9141 28.9883 53.8438 28.9883 53.8281L28.9414 53.6992L28.9883 53.6055C29.168 53.168 29.3008 52.7266 29.3867 52.2812C29.4727 51.8281 29.5156 51.3594 29.5156 50.875C29.5156 50.5469 29.4961 50.2188 29.457 49.8906C29.4258 49.5547 29.3672 49.2109 29.2812 48.8594V48.707C29.375 48.3242 29.4492 47.9492 29.5039 47.582C29.5664 47.207 29.5977 46.832 29.5977 46.457C29.5977 46.0352 29.5625 45.625 29.4922 45.2266C29.4219 44.8281 29.3281 44.4297 29.2109 44.0312L29.1875 43.9375L29.2344 43.8438C29.5703 42.9844 29.7383 42.1289 29.7383 41.2773C29.7383 40.9336 29.7109 40.5938 29.6562 40.2578C29.6094 39.9219 29.5312 39.5781 29.4219 39.2266L29.375 39.0859L29.4688 38.9688C29.4766 38.9609 29.5234 38.9141 29.6094 38.8281C29.6953 38.7344 29.8242 38.6367 29.9961 38.5352C30.1758 38.4258 30.3984 38.332 30.6641 38.2539C30.9297 38.168 31.2461 38.125 31.6133 38.125C31.9883 38.125 32.3125 38.1758 32.5859 38.2773C32.8594 38.3711 33.0859 38.4766 33.2656 38.5938C33.4531 38.7109 33.5938 38.8203 33.6875 38.9219C33.7812 39.0234 33.832 39.0781 33.8398 39.0859L33.957 39.2031L33.8867 39.3555C33.7461 39.7852 33.6367 40.207 33.5586 40.6211C33.4883 41.0273 33.4531 41.4375 33.4531 41.8516C33.4531 42.1797 33.4727 42.5 33.5117 42.8125C33.5586 43.1172 33.6289 43.4258 33.7227 43.7383V43.9141C33.6133 44.2891 33.5312 44.6484 33.4766 44.9922C33.4297 45.3359 33.4062 45.6875 33.4062 46.0469C33.4062 46.3828 33.4258 46.7305 33.4648 47.0898C33.5039 47.4414 33.5664 47.8203 33.6523 48.2266L34.0391 48.0156L34.2031 47.9922C34.2422 48 34.293 48.0078 34.3555 48.0156C34.4102 48.0234 34.4727 48.0312 34.543 48.0391C34.6133 48.0391 34.6992 48.0391 34.8008 48.0391C35.0898 48.0391 35.4492 48 35.8789 47.9219C36.3164 47.8359 36.7891 47.6602 37.2969 47.3945C37.3125 47.2461 37.3242 47.0977 37.332 46.9492C37.3398 46.8008 37.3438 46.6523 37.3438 46.5039C37.3438 46.0664 37.3125 45.6445 37.25 45.2383C37.1875 44.832 37.1055 44.4531 37.0039 44.1016V43.9141C37.2461 43.1953 37.3672 42.4844 37.3672 41.7812C37.3672 41.3672 37.3281 40.9648 37.25 40.5742C37.1797 40.1758 37.0664 39.7773 36.9102 39.3789L36.8398 39.2266L36.9102 39.1094C36.918 39.1016 36.9648 39.0391 37.0508 38.9219C37.1367 38.8047 37.2695 38.6797 37.4492 38.5469C37.6289 38.4062 37.8594 38.2812 38.1406 38.1719C38.4297 38.0625 38.7734 38.0078 39.1719 38.0078C39.5703 38.0078 39.9219 38.0625 40.2266 38.1719C40.5312 38.2812 40.7891 38.4023 41 38.5352C41.2109 38.6602 41.3711 38.7773 41.4805 38.8867C41.5977 38.9961 41.6602 39.0547 41.668 39.0625L41.7852 39.2031L41.7383 39.3555C41.5664 39.8242 41.4414 40.2852 41.3633 40.7383C41.293 41.1914 41.2578 41.6406 41.2578 42.0859C41.2578 42.3984 41.2734 42.7109 41.3047 43.0234C41.3438 43.3359 41.4062 43.6406 41.4922 43.9375V44.1016C41.3984 44.375 41.3164 44.668 41.2461 44.9805C41.1758 45.2852 41.1328 45.625 41.1172 46C41.1641 45.9609 41.2109 45.9258 41.2578 45.8945C41.3047 45.8555 41.3516 45.8125 41.3984 45.7656L41.5156 45.8125C41.5312 45.8203 41.5977 45.8516 41.7148 45.9062C41.8398 45.9531 41.9766 46.043 42.125 46.1758C42.2734 46.3008 42.418 46.4727 42.5586 46.6914C42.6992 46.9102 42.8008 47.1914 42.8633 47.5352ZM49.9023 39.2031L49.832 39.3555C49.6914 39.7852 49.582 40.207 49.5039 40.6211C49.4336 41.0273 49.3984 41.4375 49.3984 41.8516C49.3984 42.1797 49.418 42.5 49.457 42.8125C49.5039 43.1172 49.5742 43.4258 49.668 43.7383V43.9141C49.4258 44.7656 49.3047 45.582 49.3047 46.3633C49.3047 46.7617 49.3359 47.1523 49.3984 47.5352C49.4609 47.9102 49.5586 48.2852 49.6914 48.6602L49.7383 48.7656L49.6914 48.8594C49.543 49.2578 49.4336 49.6602 49.3633 50.0664C49.293 50.4648 49.2578 50.8711 49.2578 51.2852C49.2578 51.6914 49.2891 52.0938 49.3516 52.4922C49.4141 52.8828 49.5195 53.2773 49.668 53.6758L49.7148 53.8047L49.668 53.8984C49.6602 53.9141 49.6172 53.9844 49.5391 54.1094C49.4609 54.2266 49.332 54.3555 49.1523 54.4961C48.9727 54.6367 48.7266 54.7656 48.4141 54.8828C48.1094 54.9922 47.7266 55.0469 47.2656 55.0469C46.8047 55.0469 46.4219 54.9883 46.1172 54.8711C45.8203 54.7461 45.582 54.6094 45.4023 54.4609C45.2305 54.3047 45.1094 54.1641 45.0391 54.0391C44.9688 53.9141 44.9336 53.8438 44.9336 53.8281L44.8867 53.6992L44.9336 53.6055C45.1133 53.168 45.2461 52.7266 45.332 52.2812C45.418 51.8281 45.4609 51.3594 45.4609 50.875C45.4609 50.5469 45.4414 50.2188 45.4023 49.8906C45.3711 49.5547 45.3125 49.2109 45.2266 48.8594V48.707C45.3203 48.3242 45.3945 47.9492 45.4492 47.582C45.5117 47.207 45.543 46.832 45.543 46.457C45.543 46.0352 45.5078 45.625 45.4375 45.2266C45.3672 44.8281 45.2734 44.4297 45.1562 44.0312L45.1328 43.9375L45.1797 43.8438C45.5156 42.9844 45.6836 42.1289 45.6836 41.2773C45.6836 40.9336 45.6562 40.5938 45.6016 40.2578C45.5547 39.9219 45.4766 39.5781 45.3672 39.2266L45.3203 39.0859L45.4141 38.9688C45.4219 38.9609 45.4688 38.9141 45.5547 38.8281C45.6406 38.7344 45.7695 38.6367 45.9414 38.5352C46.1211 38.4258 46.3438 38.332 46.6094 38.2539C46.875 38.168 47.1914 38.125 47.5586 38.125C47.9336 38.125 48.2578 38.1758 48.5312 38.2773C48.8047 38.3711 49.0312 38.4766 49.2109 38.5938C49.3984 38.7109 49.5391 38.8203 49.6328 38.9219C49.7266 39.0234 49.7773 39.0781 49.7852 39.0859L49.9023 39.2031ZM63.5742 52.7148C63.5742 53.0664 63.5273 53.375 63.4336 53.6406C63.3398 53.9062 63.2344 54.1289 63.1172 54.3086C63 54.4883 62.8906 54.6289 62.7891 54.7305C62.6875 54.8242 62.6328 54.875 62.625 54.8828L62.4961 54.9766L62.3555 54.9297C61.5195 54.6406 60.7031 54.4961 59.9062 54.4961C59.2422 54.4961 58.5938 54.5938 57.9609 54.7891H57.7969C57.6406 54.7344 57.4688 54.6914 57.2812 54.6602C57.0938 54.6211 56.9062 54.582 56.7188 54.543C56.5234 54.6758 56.2812 54.793 55.9922 54.8945C55.7109 54.9961 55.3516 55.0469 54.9141 55.0469C54.4531 55.0469 54.0703 54.9883 53.7656 54.8711C53.4688 54.7461 53.2305 54.6094 53.0508 54.4609C52.8789 54.3047 52.7578 54.1641 52.6875 54.0391C52.6172 53.9141 52.582 53.8438 52.582 53.8281L52.5352 53.6992L52.582 53.6055C52.7617 53.168 52.8945 52.7266 52.9805 52.2812C53.0664 51.8281 53.1094 51.3594 53.1094 50.875C53.1094 50.5469 53.0898 50.2188 53.0508 49.8906C53.0195 49.5547 52.9609 49.2109 52.875 48.8594V48.707C52.9688 48.3242 53.043 47.9492 53.0977 47.582C53.1602 47.207 53.1914 46.832 53.1914 46.457C53.1914 46.0352 53.1562 45.625 53.0859 45.2266C53.0156 44.8281 52.9219 44.4297 52.8047 44.0312L52.7812 43.9375L52.8281 43.8438C53.1641 42.9844 53.332 42.1289 53.332 41.2773C53.332 40.9336 53.3047 40.5938 53.25 40.2578C53.2031 39.9219 53.125 39.5781 53.0156 39.2266L52.9688 39.0859L53.0625 38.9688C53.0703 38.9609 53.1172 38.9141 53.2031 38.8281C53.2891 38.7344 53.418 38.6367 53.5898 38.5352C53.7695 38.4258 53.9922 38.332 54.2578 38.2539C54.5234 38.168 54.8398 38.125 55.207 38.125C55.582 38.125 55.9062 38.1758 56.1797 38.2773C56.4531 38.3711 56.6797 38.4766 56.8594 38.5938C57.0469 38.7109 57.1875 38.8203 57.2812 38.9219C57.375 39.0234 57.4258 39.0781 57.4336 39.0859L57.5508 39.2031L57.4805 39.3555C57.3398 39.7852 57.2305 40.207 57.1523 40.6211C57.082 41.0273 57.0469 41.4375 57.0469 41.8516C57.0469 42.1797 57.0664 42.5 57.1055 42.8125C57.1523 43.1172 57.2227 43.4258 57.3164 43.7383V43.9141C57.0742 44.7656 56.9531 45.582 56.9531 46.3633C56.9531 46.7617 56.9844 47.1523 57.0469 47.5352C57.1094 47.9102 57.207 48.2852 57.3398 48.6602L57.3867 48.7656L57.3398 48.8594C57.2305 49.1328 57.1445 49.4141 57.082 49.7031C57.0195 49.9844 56.9688 50.2695 56.9297 50.5586C57.0078 50.543 57.0898 50.5312 57.1758 50.5234C57.2617 50.5078 57.3398 50.4922 57.4102 50.4766C57.4961 50.4609 57.5781 50.4492 57.6562 50.4414L57.75 50.3945L57.8438 50.4414C58.2656 50.5977 58.6836 50.7188 59.0977 50.8047C59.5195 50.8828 59.9492 50.9219 60.3867 50.9219C60.7227 50.9219 61.0625 50.8984 61.4062 50.8516C61.75 50.7969 62.0977 50.7148 62.4492 50.6055L62.625 50.5586L62.7422 50.6523C62.75 50.6602 62.7969 50.707 62.8828 50.793C62.9688 50.8711 63.0586 50.9961 63.1523 51.168C63.2539 51.332 63.3477 51.543 63.4336 51.8008C63.5195 52.0586 63.5664 52.3633 63.5742 52.7148ZM73.8242 46.7148C73.8242 47.0664 73.7773 47.375 73.6836 47.6406C73.5898 47.8984 73.4844 48.1172 73.3672 48.2969C73.25 48.4766 73.1406 48.6133 73.0391 48.707C72.9453 48.8008 72.8945 48.8516 72.8867 48.8594L72.7695 48.9531L72.6055 48.9062C72.168 48.7578 71.7812 48.6484 71.4453 48.5781C71.1172 48.5078 70.7891 48.4727 70.4609 48.4727C70.2188 48.4727 69.9805 48.4961 69.7461 48.543L69.8164 48.6836L69.8633 48.7891L69.8164 48.8828C69.6289 49.4141 69.5 49.9414 69.4297 50.4648C69.5547 50.4336 69.6953 50.4062 69.8516 50.3828C70.0078 50.3594 70.1562 50.3398 70.2969 50.3242C70.4375 50.3086 70.5547 50.2969 70.6484 50.2891C70.7422 50.2812 70.793 50.2773 70.8008 50.2773L70.8945 50.2422L70.9883 50.3008C71.4336 50.4805 71.8125 50.6172 72.125 50.7109C72.4375 50.8047 72.7539 50.8516 73.0742 50.8516C73.293 50.8516 73.5312 50.8281 73.7891 50.7812C74.0469 50.7344 74.3398 50.668 74.668 50.582L74.8086 50.5352L74.9258 50.6289C74.9336 50.6445 74.9766 50.6953 75.0547 50.7812C75.1406 50.8594 75.2305 50.9844 75.3242 51.1562C75.418 51.3203 75.5039 51.5312 75.582 51.7891C75.6602 52.0391 75.6992 52.3398 75.6992 52.6914C75.6914 53.043 75.6367 53.3477 75.5352 53.6055C75.4336 53.8633 75.3242 54.082 75.207 54.2617C75.0898 54.4336 74.9805 54.5664 74.8789 54.6602C74.7773 54.7539 74.7227 54.8047 74.7148 54.8125L74.5625 54.8828L74.4219 54.8359C73.9609 54.6641 73.5781 54.543 73.2734 54.4727C72.9688 54.3945 72.6719 54.3555 72.3828 54.3555C72.1797 54.3555 71.9688 54.375 71.75 54.4141C71.5312 54.4453 71.2773 54.4961 70.9883 54.5664H70.8242C70.6055 54.5273 70.3867 54.4844 70.168 54.4375C69.957 54.3828 69.7422 54.332 69.5234 54.2852C69.4453 54.3711 69.3438 54.4648 69.2188 54.5664C69.1016 54.6602 68.9531 54.7461 68.7734 54.8242C68.6016 54.9023 68.3984 54.9648 68.1641 55.0117C67.9375 55.0664 67.6797 55.0938 67.3906 55.0938C66.9297 55.0938 66.5469 55.0312 66.2422 54.9062C65.9453 54.7812 65.707 54.6445 65.5273 54.4961C65.3555 54.3398 65.2344 54.1992 65.1641 54.0742C65.0938 53.9414 65.0586 53.8672 65.0586 53.8516L65.0117 53.7578L65.0586 53.6289C65.2383 53.1992 65.3711 52.7578 65.457 52.3047C65.543 51.8516 65.5859 51.3906 65.5859 50.9219C65.5859 50.5938 65.5664 50.2617 65.5273 49.9258C65.4961 49.5898 65.4375 49.2422 65.3516 48.8828V48.7305C65.4453 48.3477 65.5195 47.9727 65.5742 47.6055C65.6367 47.2305 65.668 46.8555 65.668 46.4805C65.668 46.0664 65.6328 45.6602 65.5625 45.2617C65.4922 44.8633 65.3984 44.4688 65.2812 44.0781L65.2578 43.9609L65.3047 43.8672C65.4766 43.4453 65.6016 43.0234 65.6797 42.6016C65.7656 42.1719 65.8086 41.7461 65.8086 41.3242C65.8086 40.9805 65.7812 40.6406 65.7266 40.3047C65.6797 39.9609 65.6016 39.6133 65.4922 39.2617L65.4453 39.1094L65.5391 38.9922C65.5469 38.9844 65.5938 38.9375 65.6797 38.8516C65.7656 38.7578 65.8945 38.6602 66.0664 38.5586C66.2461 38.4492 66.4688 38.3555 66.7344 38.2773C67 38.1914 67.3164 38.1484 67.6836 38.1484C68.1055 38.1484 68.4648 38.207 68.7617 38.3242C69.0586 38.4414 69.2969 38.5664 69.4766 38.6992C69.7031 38.6758 69.9414 38.6406 70.1914 38.5938C70.4414 38.5469 70.6914 38.4805 70.9414 38.3945L71.0352 38.3477L71.1641 38.3711C71.5391 38.4883 71.8633 38.5781 72.1367 38.6406C72.418 38.6953 72.6836 38.7227 72.9336 38.7227C73.207 38.7227 73.4922 38.6875 73.7891 38.6172C74.0859 38.5469 74.4336 38.4414 74.832 38.3008L74.9727 38.2422L75.1016 38.3242C75.1094 38.332 75.1602 38.375 75.2539 38.4531C75.3477 38.5312 75.4492 38.6523 75.5586 38.8164C75.668 38.9727 75.7695 39.1758 75.8633 39.4258C75.9648 39.668 76.0273 39.9648 76.0508 40.3164V40.5273C76.0508 40.8398 76.0117 41.1172 75.9336 41.3594C75.8555 41.6016 75.7656 41.8086 75.6641 41.9805C75.5703 42.1445 75.4805 42.2695 75.3945 42.3555C75.3164 42.4414 75.2734 42.4883 75.2656 42.4961L75.1484 42.5898L74.9727 42.543C74.5977 42.457 74.2773 42.3945 74.0117 42.3555C73.7461 42.3086 73.5 42.2852 73.2734 42.2852C73.0078 42.2852 72.7422 42.3164 72.4766 42.3789C72.2188 42.4336 71.9062 42.5195 71.5391 42.6367L71.375 42.6602C71.0469 42.5977 70.7305 42.5508 70.4258 42.5195C70.1289 42.4883 69.8281 42.4727 69.5234 42.4727C69.5469 42.6914 69.5781 42.9102 69.6172 43.1289C69.6641 43.3398 69.7227 43.5547 69.793 43.7734V43.9375C69.7461 44.0781 69.707 44.2188 69.6758 44.3594C69.6523 44.4922 69.6289 44.6328 69.6055 44.7812C69.832 44.8438 70.043 44.8867 70.2383 44.9102C70.4414 44.9336 70.6523 44.9453 70.8711 44.9453C71.1602 44.9453 71.4531 44.9219 71.75 44.875C72.0469 44.8203 72.3711 44.7383 72.7227 44.6289L72.8633 44.582L72.9805 44.6758C72.9883 44.6836 73.0352 44.7305 73.1211 44.8164C73.2148 44.8945 73.3125 45.0195 73.4141 45.1914C73.5234 45.3555 73.6172 45.5664 73.6953 45.8242C73.7812 46.0742 73.8242 46.3711 73.8242 46.7148ZM85.1641 49.1641L85.1172 49.2695C84.8281 50.0664 84.6836 50.8242 84.6836 51.543C84.6836 51.8945 84.7148 52.2461 84.7773 52.5977C84.8477 52.9492 84.9492 53.3242 85.082 53.7227L85.1406 53.8516L85.082 53.9453C85.0742 53.9609 85.0312 54.0312 84.9531 54.1562C84.875 54.2734 84.7461 54.4023 84.5664 54.543C84.3867 54.6836 84.1445 54.8125 83.8398 54.9297C83.5352 55.0391 83.1523 55.0938 82.6914 55.0938C82.2305 55.0938 81.8477 55.0352 81.543 54.918C81.2461 54.793 81.0117 54.6562 80.8398 54.5078C80.668 54.3516 80.5469 54.2109 80.4766 54.0859C80.4062 53.9609 80.3672 53.8906 80.3594 53.875L80.3125 53.7578L80.3594 53.6523C80.5391 53.2227 80.6719 52.8047 80.7578 52.3984C80.8438 51.9922 80.8867 51.5781 80.8867 51.1562C80.8867 50.8672 80.8672 50.5703 80.8281 50.2656C80.7969 49.9531 80.7383 49.6211 80.6523 49.2695V49.1172C80.7617 48.7188 80.8398 48.3438 80.8867 47.9922C80.9336 47.6406 80.957 47.2969 80.957 46.9609C80.957 46.25 80.8359 45.5312 80.5938 44.8047L80.5469 44.6992L80.5938 44.6055C80.7656 44.1836 80.8867 43.7617 80.957 43.3398C81.0352 42.9102 81.082 42.4844 81.0977 42.0625H80.9805C80.1836 42.0625 79.3906 42.207 78.6016 42.4961L78.5078 42.5195L78.3906 42.4727C78.375 42.4727 78.3047 42.4375 78.1797 42.3672C78.0547 42.2969 77.9141 42.1758 77.7578 42.0039C77.6094 41.832 77.4766 41.6016 77.3594 41.3125C77.2344 41.0156 77.1719 40.6406 77.1719 40.1875C77.1719 39.7656 77.2305 39.4219 77.3477 39.1562C77.4648 38.8828 77.5938 38.668 77.7344 38.5117C77.8828 38.3477 78.0156 38.2344 78.1328 38.1719C78.2578 38.1016 78.3281 38.0625 78.3438 38.0547L78.4375 38.0078L78.5547 38.0547C78.8984 38.1797 79.2422 38.2695 79.5859 38.3242C79.9297 38.3711 80.2852 38.3945 80.6523 38.3945C80.9805 38.3945 81.332 38.3828 81.707 38.3594C82.0898 38.3281 82.4492 38.25 82.7852 38.125L82.8789 38.0781L82.9727 38.125C83.3711 38.2578 83.7461 38.3555 84.0977 38.418C84.457 38.4805 84.8125 38.5117 85.1641 38.5117C85.7969 38.5117 86.4922 38.3906 87.25 38.1484L87.3906 38.1016L87.5078 38.1953C87.5156 38.2031 87.5664 38.2461 87.6602 38.3242C87.7539 38.4023 87.8516 38.5234 87.9531 38.6875C88.0625 38.8438 88.1602 39.0469 88.2461 39.2969C88.3398 39.5391 88.3906 39.8281 88.3984 40.1641C88.3984 40.5156 88.3555 40.8242 88.2695 41.0898C88.1836 41.3477 88.0859 41.5664 87.9766 41.7461C87.875 41.918 87.7773 42.0508 87.6836 42.1445C87.5898 42.2305 87.5391 42.2852 87.5312 42.3086L87.4141 42.4023L87.25 42.3555C86.8516 42.2305 86.4844 42.1445 86.1484 42.0977C85.8203 42.043 85.4922 42.0156 85.1641 42.0156H84.8242C84.8086 42.125 84.8047 42.2305 84.8125 42.332C84.8203 42.4258 84.8242 42.5195 84.8242 42.6133C84.8242 42.9414 84.8438 43.2617 84.8828 43.5742C84.9297 43.8867 84.9961 44.1992 85.082 44.5117V44.6523C84.9648 45.0898 84.875 45.4922 84.8125 45.8594C84.7578 46.2266 84.7305 46.5859 84.7305 46.9375C84.7305 47.2969 84.7617 47.6484 84.8242 47.9922C84.8867 48.3359 84.9844 48.6953 85.1172 49.0703L85.1641 49.1641ZM98.9648 46.7148C98.9648 47.0664 98.918 47.375 98.8242 47.6406C98.7305 47.8984 98.625 48.1172 98.5078 48.2969C98.3906 48.4766 98.2812 48.6133 98.1797 48.707C98.0859 48.8008 98.0352 48.8516 98.0273 48.8594L97.9102 48.9531L97.7461 48.9062C97.3086 48.7578 96.9219 48.6484 96.5859 48.5781C96.2578 48.5078 95.9297 48.4727 95.6016 48.4727C95.3594 48.4727 95.1211 48.4961 94.8867 48.543L94.957 48.6836L95.0039 48.7891L94.957 48.8828C94.7695 49.4141 94.6406 49.9414 94.5703 50.4648C94.6953 50.4336 94.8359 50.4062 94.9922 50.3828C95.1484 50.3594 95.2969 50.3398 95.4375 50.3242C95.5781 50.3086 95.6953 50.2969 95.7891 50.2891C95.8828 50.2812 95.9336 50.2773 95.9414 50.2773L96.0352 50.2422L96.1289 50.3008C96.5742 50.4805 96.9531 50.6172 97.2656 50.7109C97.5781 50.8047 97.8945 50.8516 98.2148 50.8516C98.4336 50.8516 98.6719 50.8281 98.9297 50.7812C99.1875 50.7344 99.4805 50.668 99.8086 50.582L99.9492 50.5352L100.066 50.6289C100.074 50.6445 100.117 50.6953 100.195 50.7812C100.281 50.8594 100.371 50.9844 100.465 51.1562C100.559 51.3203 100.645 51.5312 100.723 51.7891C100.801 52.0391 100.84 52.3398 100.84 52.6914C100.832 53.043 100.777 53.3477 100.676 53.6055C100.574 53.8633 100.465 54.082 100.348 54.2617C100.23 54.4336 100.121 54.5664 100.02 54.6602C99.918 54.7539 99.8633 54.8047 99.8555 54.8125L99.7031 54.8828L99.5625 54.8359C99.1016 54.6641 98.7188 54.543 98.4141 54.4727C98.1094 54.3945 97.8125 54.3555 97.5234 54.3555C97.3203 54.3555 97.1094 54.375 96.8906 54.4141C96.6719 54.4453 96.418 54.4961 96.1289 54.5664H95.9648C95.7461 54.5273 95.5273 54.4844 95.3086 54.4375C95.0977 54.3828 94.8828 54.332 94.6641 54.2852C94.5859 54.3711 94.4844 54.4648 94.3594 54.5664C94.2422 54.6602 94.0938 54.7461 93.9141 54.8242C93.7422 54.9023 93.5391 54.9648 93.3047 55.0117C93.0781 55.0664 92.8203 55.0938 92.5312 55.0938C92.0703 55.0938 91.6875 55.0312 91.3828 54.9062C91.0859 54.7812 90.8477 54.6445 90.668 54.4961C90.4961 54.3398 90.375 54.1992 90.3047 54.0742C90.2344 53.9414 90.1992 53.8672 90.1992 53.8516L90.1523 53.7578L90.1992 53.6289C90.3789 53.1992 90.5117 52.7578 90.5977 52.3047C90.6836 51.8516 90.7266 51.3906 90.7266 50.9219C90.7266 50.5938 90.707 50.2617 90.668 49.9258C90.6367 49.5898 90.5781 49.2422 90.4922 48.8828V48.7305C90.5859 48.3477 90.6602 47.9727 90.7148 47.6055C90.7773 47.2305 90.8086 46.8555 90.8086 46.4805C90.8086 46.0664 90.7734 45.6602 90.7031 45.2617C90.6328 44.8633 90.5391 44.4688 90.4219 44.0781L90.3984 43.9609L90.4453 43.8672C90.6172 43.4453 90.7422 43.0234 90.8203 42.6016C90.9062 42.1719 90.9492 41.7461 90.9492 41.3242C90.9492 40.9805 90.9219 40.6406 90.8672 40.3047C90.8203 39.9609 90.7422 39.6133 90.6328 39.2617L90.5859 39.1094L90.6797 38.9922C90.6875 38.9844 90.7344 38.9375 90.8203 38.8516C90.9062 38.7578 91.0352 38.6602 91.207 38.5586C91.3867 38.4492 91.6094 38.3555 91.875 38.2773C92.1406 38.1914 92.457 38.1484 92.8242 38.1484C93.2461 38.1484 93.6055 38.207 93.9023 38.3242C94.1992 38.4414 94.4375 38.5664 94.6172 38.6992C94.8438 38.6758 95.082 38.6406 95.332 38.5938C95.582 38.5469 95.832 38.4805 96.082 38.3945L96.1758 38.3477L96.3047 38.3711C96.6797 38.4883 97.0039 38.5781 97.2773 38.6406C97.5586 38.6953 97.8242 38.7227 98.0742 38.7227C98.3477 38.7227 98.6328 38.6875 98.9297 38.6172C99.2266 38.5469 99.5742 38.4414 99.9727 38.3008L100.113 38.2422L100.242 38.3242C100.25 38.332 100.301 38.375 100.395 38.4531C100.488 38.5312 100.59 38.6523 100.699 38.8164C100.809 38.9727 100.91 39.1758 101.004 39.4258C101.105 39.668 101.168 39.9648 101.191 40.3164V40.5273C101.191 40.8398 101.152 41.1172 101.074 41.3594C100.996 41.6016 100.906 41.8086 100.805 41.9805C100.711 42.1445 100.621 42.2695 100.535 42.3555C100.457 42.4414 100.414 42.4883 100.406 42.4961L100.289 42.5898L100.113 42.543C99.7383 42.457 99.418 42.3945 99.1523 42.3555C98.8867 42.3086 98.6406 42.2852 98.4141 42.2852C98.1484 42.2852 97.8828 42.3164 97.6172 42.3789C97.3594 42.4336 97.0469 42.5195 96.6797 42.6367L96.5156 42.6602C96.1875 42.5977 95.8711 42.5508 95.5664 42.5195C95.2695 42.4883 94.9688 42.4727 94.6641 42.4727C94.6875 42.6914 94.7188 42.9102 94.7578 43.1289C94.8047 43.3398 94.8633 43.5547 94.9336 43.7734V43.9375C94.8867 44.0781 94.8477 44.2188 94.8164 44.3594C94.793 44.4922 94.7695 44.6328 94.7461 44.7812C94.9727 44.8438 95.1836 44.8867 95.3789 44.9102C95.582 44.9336 95.793 44.9453 96.0117 44.9453C96.3008 44.9453 96.5938 44.9219 96.8906 44.875C97.1875 44.8203 97.5117 44.7383 97.8633 44.6289L98.0039 44.582L98.1211 44.6758C98.1289 44.6836 98.1758 44.7305 98.2617 44.8164C98.3555 44.8945 98.4531 45.0195 98.5547 45.1914C98.6641 45.3555 98.7578 45.5664 98.8359 45.8242C98.9219 46.0742 98.9648 46.3711 98.9648 46.7148ZM114.207 52.7148C114.207 53.0664 114.16 53.375 114.066 53.6406C113.973 53.9062 113.867 54.1289 113.75 54.3086C113.633 54.4883 113.523 54.6289 113.422 54.7305C113.32 54.8242 113.266 54.875 113.258 54.8828L113.129 54.9766L112.988 54.9297C112.152 54.6406 111.336 54.4961 110.539 54.4961C109.875 54.4961 109.227 54.5938 108.594 54.7891H108.43C108.273 54.7344 108.102 54.6914 107.914 54.6602C107.727 54.6211 107.539 54.582 107.352 54.543C107.156 54.6758 106.914 54.793 106.625 54.8945C106.344 54.9961 105.984 55.0469 105.547 55.0469C105.086 55.0469 104.703 54.9883 104.398 54.8711C104.102 54.7461 103.863 54.6094 103.684 54.4609C103.512 54.3047 103.391 54.1641 103.32 54.0391C103.25 53.9141 103.215 53.8438 103.215 53.8281L103.168 53.6992L103.215 53.6055C103.395 53.168 103.527 52.7266 103.613 52.2812C103.699 51.8281 103.742 51.3594 103.742 50.875C103.742 50.5469 103.723 50.2188 103.684 49.8906C103.652 49.5547 103.594 49.2109 103.508 48.8594V48.707C103.602 48.3242 103.676 47.9492 103.73 47.582C103.793 47.207 103.824 46.832 103.824 46.457C103.824 46.0352 103.789 45.625 103.719 45.2266C103.648 44.8281 103.555 44.4297 103.438 44.0312L103.414 43.9375L103.461 43.8438C103.797 42.9844 103.965 42.1289 103.965 41.2773C103.965 40.9336 103.938 40.5938 103.883 40.2578C103.836 39.9219 103.758 39.5781 103.648 39.2266L103.602 39.0859L103.695 38.9688C103.703 38.9609 103.75 38.9141 103.836 38.8281C103.922 38.7344 104.051 38.6367 104.223 38.5352C104.402 38.4258 104.625 38.332 104.891 38.2539C105.156 38.168 105.473 38.125 105.84 38.125C106.215 38.125 106.539 38.1758 106.812 38.2773C107.086 38.3711 107.312 38.4766 107.492 38.5938C107.68 38.7109 107.82 38.8203 107.914 38.9219C108.008 39.0234 108.059 39.0781 108.066 39.0859L108.184 39.2031L108.113 39.3555C107.973 39.7852 107.863 40.207 107.785 40.6211C107.715 41.0273 107.68 41.4375 107.68 41.8516C107.68 42.1797 107.699 42.5 107.738 42.8125C107.785 43.1172 107.855 43.4258 107.949 43.7383V43.9141C107.707 44.7656 107.586 45.582 107.586 46.3633C107.586 46.7617 107.617 47.1523 107.68 47.5352C107.742 47.9102 107.84 48.2852 107.973 48.6602L108.02 48.7656L107.973 48.8594C107.863 49.1328 107.777 49.4141 107.715 49.7031C107.652 49.9844 107.602 50.2695 107.562 50.5586C107.641 50.543 107.723 50.5312 107.809 50.5234C107.895 50.5078 107.973 50.4922 108.043 50.4766C108.129 50.4609 108.211 50.4492 108.289 50.4414L108.383 50.3945L108.477 50.4414C108.898 50.5977 109.316 50.7188 109.73 50.8047C110.152 50.8828 110.582 50.9219 111.02 50.9219C111.355 50.9219 111.695 50.8984 112.039 50.8516C112.383 50.7969 112.73 50.7148 113.082 50.6055L113.258 50.5586L113.375 50.6523C113.383 50.6602 113.43 50.707 113.516 50.793C113.602 50.8711 113.691 50.9961 113.785 51.168C113.887 51.332 113.98 51.543 114.066 51.8008C114.152 52.0586 114.199 52.3633 114.207 52.7148Z" fill="#F2F2F2"/>
<path d="M22.6605 31.7677C20.4372 37.3254 19.7314 43.641 20.6556 49.7071L25.6372 50.5118C26.2712 50.6142 26.7561 51.1221 26.9579 51.7921C27.5804 53.9573 28.4996 56.0457 29.7247 57.9757C29.9846 58.3852 30.0986 58.9021 30.0415 59.4126C29.9845 59.9231 29.761 60.3855 29.4204 60.6979L24.9254 64.8218C24.5848 65.1343 24.1549 65.2713 23.7302 65.2027C23.3056 65.1341 22.921 64.8655 22.661 64.456C18.2423 57.4947 16.3047 48.7081 17.2747 40.0294C18.2446 31.3506 22.0425 23.4905 27.833 18.1782C28.1736 17.8657 28.6036 17.7287 29.0282 17.7973C29.4529 17.8659 29.8374 18.1345 30.0974 18.544L33.5276 23.9479C33.7875 24.3574 33.9015 24.8743 33.8444 25.3848C33.7874 25.8953 33.564 26.3577 33.2234 26.6702C31.618 28.143 30.2728 29.8656 29.1971 31.7565C28.8554 32.3388 28.2761 32.6747 27.6421 32.5723L22.6605 31.7677Z" fill="#F2F2F2"/>
</svg>
